<svg width="22" height="22" viewBox="0 0 22 22" fill="none" xmlns="http://www.w3.org/2000/svg">
<path d="M0 11C0 4.92487 4.92487 0 11 0C17.0751 0 22 4.92487 22 11C22 17.0751 17.0751 22 11 22C4.92487 22 0 17.0751 0 11Z" fill="url(#paint0_linear_78_351)"/>
<path d="M7.15376 16.0164L7.1558 16.017L6.41358 17.3026C6.14266 17.7718 5.54258 17.9326 5.07332 17.6617C4.60408 17.3908 4.44329 16.7907 4.71421 16.3214L5.26098 15.3744L5.31345 15.2835C5.40716 15.1488 5.63842 14.9164 6.101 14.9601C6.101 14.9601 7.18955 15.0782 7.26831 15.644C7.26833 15.644 7.27907 15.8301 7.15376 16.0164ZM17.6811 12.7328H15.3665C15.2089 12.7223 15.1401 12.666 15.1131 12.6333L15.1113 12.6303L12.6337 8.33891L12.6305 8.34106L12.4819 8.128C12.2384 7.75561 11.8517 8.70808 11.8517 8.70808C11.39 9.76938 11.9172 10.9761 12.101 11.3408L15.5423 17.3012C15.8132 17.7705 16.4133 17.9313 16.8825 17.6603C17.3518 17.3894 17.5126 16.7894 17.2417 16.3201L16.3811 14.8296C16.3645 14.7935 16.3354 14.6955 16.5119 14.6951H17.6811C18.2229 14.6951 18.6622 14.2558 18.6622 13.714C18.6622 13.1721 18.2229 12.7328 17.6811 12.7328ZM13.1855 14.0666C13.1855 14.0666 13.309 14.6951 12.831 14.6951H12.353V14.6951H4.27483C3.73297 14.6951 3.2937 14.2558 3.2937 13.714C3.2937 13.1721 3.73297 12.7328 4.27483 12.7328H6.47453C6.82966 12.7122 6.91386 12.5072 6.91386 12.5072L6.9158 12.5082L9.78714 7.5349L9.78628 7.53473C9.83864 7.43865 9.79505 7.34788 9.78746 7.33351L8.83921 5.69109C8.56827 5.22183 8.72906 4.62177 9.19832 4.35085C9.66758 4.07991 10.2676 4.2407 10.5386 4.70996L10.9783 5.47171L11.4174 4.71132C11.6883 4.24206 12.2883 4.08127 12.7576 4.35221C13.2269 4.62315 13.3876 5.2232 13.1167 5.69244L9.12114 12.6129C9.10368 12.6551 9.09833 12.7212 9.22831 12.7328H11.6166L11.6171 12.7561C11.6171 12.7561 12.9975 12.7776 13.1855 14.0666Z" fill="white"/>
<defs>
<linearGradient id="paint0_linear_78_351" x1="11" y1="22" x2="11" y2="0" gradientUnits="userSpaceOnUse">
<stop stop-color="#1D76F2"/>
<stop offset="1" stop-color="#1AC2FB"/>
</linearGradient>
</defs>
</svg>
