<svg width="61" height="61" viewBox="0 0 61 61" fill="none" xmlns="http://www.w3.org/2000/svg">
<path d="M30.5 61C47.3447 61 61 47.3447 61 30.5C61 13.6553 47.3447 0 30.5 0C13.6553 0 0 13.6553 0 30.5C0 47.3447 13.6553 61 30.5 61Z" fill="white"/>
<path d="M20.5 26.5H18.5C17.673 26.5 17 25.827 17 25V24C17 23.173 17.673 22.5 18.5 22.5H21C21.1326 22.5 21.2598 22.5527 21.3536 22.6464C21.4473 22.7402 21.5 22.8674 21.5 23C21.5 23.1326 21.4473 23.2598 21.3536 23.3536C21.2598 23.4473 21.1326 23.5 21 23.5H18.5C18.225 23.5 18 23.725 18 24V25C18 25.275 18.225 25.5 18.5 25.5H20.5C20.6326 25.5 20.7598 25.5527 20.8536 25.6464C20.9473 25.7402 21 25.8674 21 26C21 26.1326 20.9473 26.2598 20.8536 26.3536C20.7598 26.4473 20.6326 26.5 20.5 26.5ZM43.5 26.5H41.333C41.2004 26.5 41.0732 26.4473 40.9794 26.3536C40.8857 26.2598 40.833 26.1326 40.833 26C40.833 25.8674 40.8857 25.7402 40.9794 25.6464C41.0732 25.5527 41.2004 25.5 41.333 25.5H43.5C43.775 25.5 44 25.275 44 25V24C44 23.725 43.775 23.5 43.5 23.5H41C40.8674 23.5 40.7402 23.4473 40.6464 23.3536C40.5527 23.2598 40.5 23.1326 40.5 23C40.5 22.8674 40.5527 22.7402 40.6464 22.6464C40.7402 22.5527 40.8674 22.5 41 22.5H43.5C44.327 22.5 45 23.173 45 24V25C45 25.827 44.327 26.5 43.5 26.5ZM21.5 39C21.3674 39 21.2402 38.9473 21.1464 38.8536C21.0527 38.7598 21 38.6326 21 38.5V38C21 37.8674 21.0527 37.7402 21.1464 37.6464C21.2402 37.5527 21.3674 37.5 21.5 37.5C21.6326 37.5 21.7598 37.5527 21.8536 37.6464C21.9473 37.7402 22 37.8674 22 38V38.5C22 38.6326 21.9473 38.7598 21.8536 38.8536C21.7598 38.9473 21.6326 39 21.5 39Z" fill="#D80027"/>
<path d="M22.5 41.5H20.5C19.673 41.5 19 40.827 19 40V38C19 37.8674 19.0527 37.7402 19.1464 37.6464C19.2402 37.5527 19.3674 37.5 19.5 37.5H23.5C23.6326 37.5 23.7598 37.5527 23.8536 37.6464C23.9473 37.7402 24 37.8674 24 38V40C24 40.827 23.327 41.5 22.5 41.5ZM20 38.5V40C20 40.275 20.225 40.5 20.5 40.5H22.5C22.775 40.5 23 40.275 23 40V38.5H20Z" fill="#D80027"/>
<path d="M43.5 37.5C43.3674 37.5 43.2402 37.4473 43.1464 37.3536C43.0527 37.2598 43 37.1326 43 37V30C43 29.173 42.327 28.5 41.5 28.5H20.5C19.673 28.5 19 29.173 19 30V37C19 37.1326 18.9473 37.2598 18.8536 37.3536C18.7598 37.4473 18.6326 37.5 18.5 37.5C18.3674 37.5 18.2402 37.4473 18.1464 37.3536C18.0527 37.2598 18 37.1326 18 37V30C18 28.621 19.121 27.5 20.5 27.5H41.5C42.879 27.5 44 28.621 44 30V37C44 37.1326 43.9473 37.2598 43.8536 37.3536C43.7598 37.4473 43.6326 37.5 43.5 37.5Z" fill="#2C4355"/>
<path d="M38.5 36.5H23.5C23.3674 36.5 23.2402 36.4473 23.1464 36.3536C23.0527 36.2598 23 36.1326 23 36C23 35.8674 23.0527 35.7402 23.1464 35.6464C23.2402 35.5527 23.3674 35.5 23.5 35.5H38.5C38.6326 35.5 38.7598 35.5527 38.8536 35.6464C38.9473 35.7402 39 35.8674 39 36C39 36.1326 38.9473 36.2598 38.8536 36.3536C38.7598 36.4473 38.6326 36.5 38.5 36.5Z" fill="#2C4355"/>
<path d="M23.5 38.5H19.5C18.673 38.5 18 37.827 18 37V36C18 35.8674 18.0527 35.7402 18.1464 35.6464C18.2402 35.5527 18.3674 35.5 18.5 35.5C18.6326 35.5 18.7598 35.5527 18.8536 35.6464C18.9473 35.7402 19 35.8674 19 36V37C19 37.275 19.225 37.5 19.5 37.5H23.5C23.775 37.5 24 37.275 24 37V36C24 35.8674 24.0527 35.7402 24.1464 35.6464C24.2402 35.5527 24.3674 35.5 24.5 35.5C24.6326 35.5 24.7598 35.5527 24.8536 35.6464C24.9473 35.7402 25 35.8674 25 36V37C25 37.827 24.327 38.5 23.5 38.5Z" fill="#2C4355"/>
<path d="M41.5 41.5H39.5C38.673 41.5 38 40.827 38 40V38C38 37.8674 38.0527 37.7402 38.1464 37.6465C38.2402 37.5527 38.3674 37.5 38.5 37.5H42.5C42.6326 37.5 42.7598 37.5527 42.8536 37.6465C42.9473 37.7402 43 37.8674 43 38V40C43 40.827 42.327 41.5 41.5 41.5ZM39 38.5V40C39 40.275 39.225 40.5 39.5 40.5H41.5C41.775 40.5 42 40.275 42 40V38.5H39ZM23.5 34.5H20.5C20.3674 34.5 20.2402 34.4473 20.1464 34.3536C20.0527 34.2598 20 34.1326 20 34V31C20 30.8674 20.0527 30.7402 20.1464 30.6465C20.2402 30.5527 20.3674 30.5 20.5 30.5H21.5C21.667 30.5 21.823 30.584 21.916 30.723L23.916 33.723C24.0021 33.7233 24.0867 33.7459 24.1615 33.7885C24.2363 33.8311 24.2988 33.8924 24.3429 33.9663C24.387 34.0403 24.4113 34.1244 24.4133 34.2104C24.4153 34.2965 24.3949 34.3816 24.3543 34.4575C24.3137 34.5335 24.2541 34.5976 24.1813 34.6436C24.1086 34.6897 24.0252 34.7161 23.9392 34.7204C23.8532 34.7247 23.7675 34.7066 23.6906 34.668C23.6136 34.6294 23.548 34.5715 23.5 34.5ZM21 33.5H22.565L21.232 31.5H21V33.5ZM41.5 34.5H38.5C38.452 34.5718 38.3862 34.6299 38.3091 34.6687C38.2319 34.7075 38.146 34.7257 38.0598 34.7214C37.9735 34.7172 37.8899 34.6906 37.8169 34.6444C37.7439 34.5982 37.6842 34.5339 37.6435 34.4578C37.6028 34.3816 37.5825 34.2962 37.5846 34.2099C37.5866 34.1236 37.6111 34.0393 37.6554 33.9652C37.6998 33.8911 37.7626 33.8298 37.8377 33.7871C37.9128 33.7445 37.9976 33.7221 38.084 33.722L40.084 30.722C40.1297 30.6535 40.1915 30.5974 40.2641 30.5585C40.3367 30.5196 40.4177 30.4992 40.5 30.499H41.5C41.6326 30.499 41.7598 30.5517 41.8536 30.6455C41.9473 30.7392 42 30.8664 42 30.999V33.999C42.0001 34.0648 41.9873 34.1299 41.9622 34.1907C41.9372 34.2515 41.9003 34.3067 41.8539 34.3532C41.8075 34.3998 41.7523 34.4367 41.6916 34.4619C41.6308 34.4871 41.5657 34.5 41.5 34.5ZM39.435 33.5H41V31.5H40.768L39.435 33.5ZM30 32.5C29.8674 32.5 29.7402 32.4473 29.6464 32.3536C29.5527 32.2598 29.5 32.1326 29.5 32V31C29.5 30.8674 29.5527 30.7402 29.6464 30.6465C29.7402 30.5527 29.8674 30.5 30 30.5C30.1326 30.5 30.2598 30.5527 30.3536 30.6465C30.4473 30.7402 30.5 30.8674 30.5 31V32C30.5 32.1326 30.4473 32.2598 30.3536 32.3536C30.2598 32.4473 30.1326 32.5 30 32.5ZM21.5 41.5C21.3674 41.5 21.2402 41.4473 21.1464 41.3536C21.0527 41.2598 21 41.1326 21 41V40.5C21 40.3674 21.0527 40.2402 21.1464 40.1465C21.2402 40.0527 21.3674 40 21.5 40C21.6326 40 21.7598 40.0527 21.8536 40.1465C21.9473 40.2402 22 40.3674 22 40.5V41C22 41.1326 21.9473 41.2598 21.8536 41.3536C21.7598 41.4473 21.6326 41.5 21.5 41.5Z" fill="#D80027"/>
<path d="M40.5 39C40.3674 39 40.2402 38.9473 40.1464 38.8536C40.0527 38.7598 40 38.6326 40 38.5V38C40 37.8674 40.0527 37.7402 40.1464 37.6464C40.2402 37.5527 40.3674 37.5 40.5 37.5C40.6326 37.5 40.7598 37.5527 40.8536 37.6464C40.9473 37.7402 41 37.8674 41 38V38.5C41 38.6326 40.9473 38.7598 40.8536 38.8536C40.7598 38.9473 40.6326 39 40.5 39ZM40.5 41.5C40.3674 41.5 40.2402 41.4473 40.1464 41.3536C40.0527 41.2598 40 41.1326 40 41V40.5C40 40.3674 40.0527 40.2402 40.1464 40.1464C40.2402 40.0527 40.3674 40 40.5 40C40.6326 40 40.7598 40.0527 40.8536 40.1464C40.9473 40.2402 41 40.3674 41 40.5V41C41 41.1326 40.9473 41.2598 40.8536 41.3536C40.7598 41.4473 40.6326 41.5 40.5 41.5ZM28 32.5C27.8674 32.5 27.7402 32.4473 27.6464 32.3536C27.5527 32.2598 27.5 32.1326 27.5 32V31C27.5 30.8674 27.5527 30.7402 27.6464 30.6464C27.7402 30.5527 27.8674 30.5 28 30.5C28.1326 30.5 28.2598 30.5527 28.3536 30.6464C28.4473 30.7402 28.5 30.8674 28.5 31V32C28.5 32.1326 28.4473 32.2598 28.3536 32.3536C28.2598 32.4473 28.1326 32.5 28 32.5ZM32 32.5C31.8674 32.5 31.7402 32.4473 31.6464 32.3536C31.5527 32.2598 31.5 32.1326 31.5 32V31C31.5 30.8674 31.5527 30.7402 31.6464 30.6464C31.7402 30.5527 31.8674 30.5 32 30.5C32.1326 30.5 32.2598 30.5527 32.3536 30.6464C32.4473 30.7402 32.5 30.8674 32.5 31V32C32.5 32.1326 32.4473 32.2598 32.3536 32.3536C32.2598 32.4473 32.1326 32.5 32 32.5Z" fill="#D80027"/>
<path d="M31 21.5C30.8674 21.5 30.7402 21.4473 30.6464 21.3536C30.5527 21.2598 30.5 21.1326 30.5 21V19C30.5 18.8674 30.5527 18.7402 30.6464 18.6464C30.7402 18.5527 30.8674 18.5 31 18.5C31.1326 18.5 31.2598 18.5527 31.3536 18.6464C31.4473 18.7402 31.5 18.8674 31.5 19V21C31.5 21.1326 31.4473 21.2598 31.3536 21.3536C31.2598 21.4473 31.1326 21.5 31 21.5Z" fill="#2C4355"/>
<path d="M32.5 21.5H29.5C29.3674 21.5 29.2402 21.4473 29.1464 21.3536C29.0527 21.2598 29 21.1326 29 21C29 20.8674 29.0527 20.7402 29.1464 20.6464C29.2402 20.5527 29.3674 20.5 29.5 20.5H32.5C32.6326 20.5 32.7598 20.5527 32.8536 20.6464C32.9473 20.7402 33 20.8674 33 21C33 21.1326 32.9473 21.2598 32.8536 21.3536C32.7598 21.4473 32.6326 21.5 32.5 21.5Z" fill="#2C4355"/>
<path d="M34 32.5C33.8674 32.5 33.7402 32.4473 33.6464 32.3536C33.5527 32.2598 33.5 32.1326 33.5 32V31C33.5 30.8674 33.5527 30.7402 33.6464 30.6464C33.7402 30.5527 33.8674 30.5 34 30.5C34.1326 30.5 34.2598 30.5527 34.3536 30.6464C34.4473 30.7402 34.5 30.8674 34.5 31V32C34.5 32.1326 34.4473 32.2598 34.3536 32.3536C34.2598 32.4473 34.1326 32.5 34 32.5Z" fill="#D80027"/>
<path d="M36.2939 34.5H25.7059C25.6207 34.4999 25.5368 34.478 25.4623 34.4366C25.3878 34.3951 25.325 34.3354 25.2799 34.263L21.5739 28.263C21.5264 28.1874 21.5 28.1003 21.4977 28.0109C21.4954 27.9216 21.5172 27.8333 21.5607 27.7552C21.6043 27.6772 21.6681 27.6123 21.7454 27.5674C21.8226 27.5225 21.9106 27.4992 21.9999 27.5H39.9999C40.0893 27.4992 40.1772 27.5225 40.2545 27.5674C40.3318 27.6123 40.3956 27.6772 40.4391 27.7552C40.4827 27.8333 40.5045 27.9216 40.5021 28.0109C40.4998 28.1003 40.4735 28.1874 40.4259 28.263L36.7199 34.263C36.6748 34.3354 36.6121 34.3951 36.5376 34.4366C36.463 34.478 36.3792 34.4999 36.2939 34.5ZM25.9849 33.5H36.0139L39.1029 28.5H22.8959L25.9849 33.5Z" fill="#2C4355"/>
<path d="M41.4998 28.5H20.4998C20.4272 28.5 20.3555 28.4841 20.2896 28.4536C20.2238 28.4231 20.1654 28.3786 20.1185 28.3232C20.0716 28.2678 20.0373 28.2029 20.018 28.1329C19.9987 28.0629 19.9949 27.9896 20.0068 27.918L21.2288 20.589C21.3243 20.0047 21.6249 19.4734 22.0766 19.0906C22.5283 18.7078 23.1017 18.4984 23.6938 18.5H38.3048C39.5328 18.5 40.5698 19.379 40.7708 20.589L41.9928 27.918C42.0041 27.9895 41.9999 28.0627 41.9804 28.1324C41.961 28.2022 41.9266 28.2669 41.8798 28.3221C41.833 28.3774 41.7748 28.4219 41.7092 28.4526C41.6436 28.4833 41.5722 28.4995 41.4998 28.5ZM21.0898 27.5H40.9098L39.7848 20.753C39.7273 20.4025 39.5469 20.0839 39.2759 19.8543C39.0049 19.6247 38.661 19.4991 38.3058 19.5H23.6938C22.9578 19.5 22.3358 20.027 22.2148 20.753L21.0898 27.5ZM42.4998 38.5H38.4998C37.6728 38.5 36.9998 37.827 36.9998 37V36C36.9998 35.8674 37.0524 35.7402 37.1462 35.6465C37.24 35.5527 37.3672 35.5 37.4998 35.5C37.6324 35.5 37.7596 35.5527 37.8533 35.6465C37.9471 35.7402 37.9998 35.8674 37.9998 36V37C37.9998 37.275 38.2248 37.5 38.4998 37.5H42.4998C42.7748 37.5 42.9998 37.275 42.9998 37V36C42.9998 35.8674 43.0524 35.7402 43.1462 35.6465C43.24 35.5527 43.3672 35.5 43.4998 35.5C43.6324 35.5 43.7596 35.5527 43.8533 35.6465C43.9471 35.7402 43.9998 35.8674 43.9998 36V37C43.9998 37.827 43.3268 38.5 42.4998 38.5Z" fill="#2C4355"/>
</svg>
