<svg width="51" height="51" viewBox="0 0 51 51" fill="none" xmlns="http://www.w3.org/2000/svg">
<path d="M51 25.5C51.0011 27.2878 50.8149 29.0709 50.4444 30.8199C50.1788 32.0733 49.8183 33.3048 49.366 34.5036C49.1218 35.1496 48.8525 35.7829 48.5582 36.4036C48.4812 36.5677 48.4021 36.7306 48.321 36.8922C47.9806 37.5717 47.6115 38.2336 47.2138 38.8781C47.1758 38.9404 47.1378 39.0027 47.0975 39.065C47.0572 39.1274 47.0055 39.211 46.9592 39.2832C46.9556 39.2883 46.9523 39.2936 46.9493 39.2991L46.9242 39.3364C46.8512 39.4499 46.777 39.5628 46.7015 39.6753C46.6559 39.7437 46.6103 39.8121 46.5632 39.8797C46.5381 39.9177 46.5123 39.9557 46.4872 39.9922C46.3773 40.1518 46.2648 40.3099 46.1498 40.4665C45.586 41.2441 44.9786 41.9891 44.3304 42.6978L44.2544 42.7806C43.6608 43.4263 43.0337 44.0405 42.3757 44.6206C42.2678 44.7163 42.1584 44.8106 42.0489 44.904L42.0375 44.9139C41.8901 45.0401 41.7409 45.1642 41.5899 45.2863C41.4161 45.4282 41.2388 45.568 41.0579 45.7058C41.007 45.7454 40.9553 45.7818 40.9059 45.8229L40.7661 45.9285C40.6065 46.0486 40.4449 46.1664 40.2812 46.2819L40.1612 46.367C40.0426 46.4499 39.924 46.5327 39.804 46.6133C39.6702 46.7045 39.5357 46.7941 39.4004 46.8823C39.3077 46.9423 39.215 47.0024 39.1223 47.0609C38.9611 47.1622 38.799 47.2623 38.6359 47.3611C37.9377 47.7806 37.2188 48.1677 36.479 48.5224C35.8047 48.8446 35.1146 49.1372 34.4089 49.4002L34.2531 49.4572C33.8371 49.6091 33.4163 49.7505 32.9907 49.8812C32.706 49.9694 32.4187 50.052 32.1289 50.129C31.9823 50.1685 31.8348 50.205 31.6866 50.2437C31.4206 50.3106 31.1529 50.3729 30.8833 50.4307C30.7222 50.4657 30.5596 50.4983 30.3977 50.5303L30.3217 50.5455C29.2947 50.7418 28.2567 50.8748 27.2134 50.9437C26.6485 50.9817 26.0785 51.0004 25.5034 50.9999H25.4776C24.4501 50.9996 23.4235 50.9372 22.4035 50.813C21.7007 50.7284 21.0066 50.6151 20.3211 50.4733C19.8383 50.3719 19.3608 50.2587 18.8886 50.1335C18.504 50.0322 18.124 49.9205 17.7486 49.7984C17.4618 49.7072 17.1771 49.6109 16.8944 49.5096C15.967 49.1769 15.0598 48.7904 14.1775 48.3521C14.0931 48.3103 14.0087 48.2678 13.9251 48.2244L13.8332 48.1773C13.4608 47.9853 13.0937 47.7844 12.732 47.5747C12.6149 47.5063 12.4979 47.4379 12.3824 47.3672C12.1772 47.2441 11.9745 47.1174 11.7744 46.9872C11.5657 46.8544 11.3589 46.7179 11.1543 46.5775C10.9369 46.4301 10.7218 46.2781 10.5098 46.1216C10.4619 46.0866 10.4148 46.0524 10.3677 46.0167C9.76679 45.5728 9.18642 45.1034 8.62657 44.6084C8.38793 44.3982 8.1531 44.1826 7.92207 43.9617C7.35715 43.4322 6.81908 42.8754 6.30787 42.2912C5.94105 41.8732 5.58817 41.4425 5.24922 40.9992C5.15498 40.8761 5.0615 40.7522 4.97031 40.6268C4.91964 40.5584 4.86898 40.49 4.81831 40.4216C4.78791 40.3791 4.75751 40.3373 4.72787 40.2947C4.56068 40.0611 4.39779 39.825 4.23921 39.5864C4.19437 39.5188 4.14953 39.4511 4.10545 39.3827C3.73559 38.8127 3.38778 38.2275 3.062 37.6271C3.00424 37.52 2.94724 37.4136 2.891 37.3057C2.81501 37.1537 2.73369 37.0017 2.65845 36.8497C2.57333 36.6787 2.49049 36.5077 2.40994 36.3344C2.39778 36.3086 2.38562 36.2827 2.37422 36.2584C0.803828 32.8896 -0.00669728 29.2168 4.16799e-05 25.5C4.16799e-05 11.4166 11.4172 0 25.5004 0C35.6758 0 44.4588 5.95985 48.5498 14.5797C50.1683 17.9923 51.0053 21.723 51 25.5Z" fill="#00C2DC"/>
<path d="M29.522 43.827C35.1132 43.599 40.2925 43.2312 44.252 42.7775C43.6583 43.4232 43.0312 44.0373 42.3733 44.6174C42.2654 44.7132 42.1559 44.8074 42.0465 44.9009L42.0351 44.9108C41.8877 45.0369 41.7384 45.161 41.5875 45.2832C41.4137 45.425 41.2364 45.5649 41.0555 45.7027C41.0046 45.7422 40.9529 45.7787 40.9035 45.8197L40.7637 45.9253C40.6041 46.0454 40.4424 46.1632 40.2788 46.2787L40.1587 46.3639C40.0401 46.4467 39.9216 46.5295 39.8015 46.6101C39.6678 46.7013 39.5332 46.791 39.398 46.8791C39.3052 46.9392 39.2125 46.9992 39.1198 47.0577C38.9587 47.1591 38.7966 47.2591 38.6334 47.3579C37.9363 47.779 37.2178 48.1668 36.4781 48.5215C35.8038 48.8437 35.1137 49.1363 34.4079 49.3993L34.2521 49.4563C33.8362 49.6083 33.4154 49.7496 32.9898 49.8803C32.7051 49.9685 32.4178 50.0511 32.128 50.1281C31.9813 50.1676 31.8339 50.2041 31.6857 50.2429C31.4197 50.3097 31.1519 50.3721 30.8824 50.4298C30.7213 50.4648 30.5586 50.4975 30.3968 50.5294L30.3208 50.5446C29.2938 50.7409 28.2558 50.8739 27.2125 50.9428C26.6475 50.9808 26.0776 50.9996 25.5025 50.999H25.4767C24.4491 50.9987 23.4226 50.9363 22.4026 50.8121C21.6998 50.7275 21.0057 50.6142 20.3202 50.4724C19.8374 50.371 19.3598 50.2578 18.8876 50.1327C18.5031 50.0313 18.1231 49.9196 17.7477 49.7975C17.4609 49.7063 17.1762 49.61 16.8935 49.5087C15.9661 49.176 15.0589 48.7896 14.1765 48.3512C14.0922 48.3094 14.0078 48.2669 13.9242 48.2236L13.8323 48.1764C13.4599 47.9844 13.0928 47.7835 12.7311 47.5738C12.614 47.5054 12.497 47.437 12.3815 47.3663C12.1763 47.2432 11.9736 47.1165 11.7735 46.9863C11.5647 46.8535 11.358 46.717 11.1533 46.5767C10.936 46.4292 10.7209 46.2772 10.5089 46.1207C10.461 46.0857 10.4139 46.0515 10.3668 46.0158C9.76587 45.572 9.1855 45.1025 8.62564 44.6075C8.38701 44.3973 8.15218 44.1817 7.92114 43.9608C10.3835 44.0444 12.9758 44.0877 15.619 44.0938C20.2351 44.1097 25.0131 44.0117 29.522 43.827Z" fill="#434A59"/>
<path d="M46.1504 40.4631C45.5866 41.2407 44.9792 41.9857 44.331 42.6944L44.255 42.7772C43.6614 43.423 43.0343 44.0371 42.3763 44.6172C42.2684 44.7129 42.159 44.8072 42.0495 44.9007L42.0381 44.9105C41.8907 45.0367 41.7415 45.1608 41.5905 45.2829C41.4167 45.4248 41.2394 45.5646 41.0585 45.7024C41.0076 45.742 40.9559 45.7784 40.9065 45.8195L40.7667 45.9251C40.6071 46.0452 40.4455 46.163 40.2818 46.2785L40.1618 46.3636C40.0432 46.4465 39.9246 46.5293 39.8046 46.6099C39.6708 46.7011 39.5363 46.7907 39.401 46.8789C39.3083 46.9389 39.2156 46.999 39.1229 47.0575C38.9618 47.1588 38.7996 47.2589 38.6365 47.3577C37.9388 47.7787 37.2201 48.1666 36.4804 48.5212C35.8061 48.8435 35.116 49.1361 34.4102 49.399L34.2544 49.456C33.8385 49.608 33.4177 49.7494 32.9921 49.8801C32.7074 49.9683 32.4201 50.0509 32.1303 50.1279C31.9836 50.1674 31.8362 50.2039 31.688 50.2426C31.422 50.3095 31.1542 50.3718 30.8847 50.4296C30.7236 50.4645 30.5609 50.4972 30.3991 50.5291L30.3231 50.5443C29.2961 50.7407 28.258 50.8737 27.2148 50.9426C26.6498 50.9806 26.0798 50.9993 25.5048 50.9988H25.479C24.4514 50.9985 23.4248 50.936 22.4048 50.8119C21.7021 50.7272 21.008 50.614 20.3225 50.4721C19.8397 50.3708 19.3621 50.2576 18.8899 50.1324C18.5054 50.0311 18.1254 49.9194 17.75 49.7973C17.4632 49.7061 17.1785 49.6098 16.8958 49.5085C15.9684 49.1758 15.0612 48.7893 14.1788 48.351C14.0945 48.3092 14.0101 48.2666 13.9265 48.2233L13.8346 48.1762C13.4622 47.9842 13.0951 47.7833 12.7333 47.5735C12.6163 47.5051 12.4993 47.4367 12.3838 47.3661C12.1786 47.2429 11.9759 47.1163 11.7758 46.9861C11.567 46.8533 11.3603 46.7168 11.1556 46.5764C10.9383 46.429 10.7232 46.277 10.5112 46.1204C10.4633 46.0855 10.4162 46.0513 10.3691 46.0156C9.76816 45.5717 9.18779 45.1023 8.62794 44.6073C8.38931 44.397 8.15447 44.1814 7.92344 43.9605C7.35852 43.4311 6.82046 42.8743 6.30924 42.2901C5.94243 41.8721 5.58954 41.4414 5.25059 40.9981C5.15635 40.875 5.06288 40.7511 4.97168 40.6257C8.56486 40.4311 12.2226 40.2852 15.8911 40.1872C20.4008 40.0656 24.9272 40.0154 29.3678 40.0352C35.1824 40.0625 40.8511 40.2062 46.1504 40.4631Z" fill="#FFBBB5"/>
<path d="M14.2815 11.3444C14.2815 11.3444 13.4987 10.8048 13.982 9.85325C14.4654 8.90174 14.8264 9.38206 15.901 9.18446C16.357 9.10086 17.614 8.02091 19.118 6.82849C19.177 6.72117 19.2741 6.63983 19.3901 6.60049L19.4189 6.59061C20.8462 5.47115 22.4551 4.30684 23.8071 3.79917C24.1761 3.47821 24.5847 3.20594 25.023 2.98902C26.391 2.33922 29.0509 2.28375 30.0495 3.60309C30.4455 4.12748 29.5844 4.67316 29.1908 4.1518C28.7302 3.54381 27.1981 3.56205 26.5255 3.62741C26.428 3.63799 26.3311 3.65346 26.2352 3.67377C28.6595 4.04236 30.9911 4.96575 31.5452 8.06119C32.176 11.5845 31.4411 13.6 31.4411 13.6C31.954 19.5219 18.855 29.1859 18.9075 27.4364C18.9599 25.6869 12.5632 21.8968 13.9053 17.6652C14.6782 15.2332 13.5777 15.2059 13.5777 15.2059C13.5777 15.2059 11.9871 15.0691 12.3694 13.3059C12.7516 11.5427 14.2815 11.3444 14.2815 11.3444Z" fill="#925E56"/>
<path d="M19.2223 22.0302L15.3616 43.0668C15.2993 44.9971 18.1598 47.1441 25.3538 46.5437C25.7604 46.5103 30.7337 46.5863 29.5246 40.6652L24.4152 20.3522L19.2223 22.0302Z" fill="#FFBBB5"/>
<path d="M27.2526 31.6306L21.4243 30.5134C21.4243 30.5134 24.9339 35.9094 28.6441 37.1656L27.2526 31.6306Z" fill="#C68A85"/>
<path d="M21.6869 15.1437L18.8393 24.6101C18.5053 26.145 18.7835 27.7496 19.6147 29.0824C20.4459 30.4153 21.7645 31.3711 23.2897 31.7464C25.8243 32.3658 27.4559 32.3293 30.6684 31.8612C33.345 31.4706 34.6598 28.8615 34.5739 25.3428C34.463 20.7782 33.0638 16.6029 32.1899 14.4156C30.198 9.42095 23.9942 9.11011 21.6869 15.1437Z" fill="#FFBBB5"/>
<path d="M20.6574 24.7934L19.6169 15.1415C19.8989 14.4035 20.9963 12.7559 21.6567 13.4931C21.5625 15.3809 22.4555 20.0343 23.0369 20.6621C23.7049 21.3818 26.5525 19.114 29.7026 18.9422C31.7082 18.8328 33.0845 18.5303 34.2929 19.9636C35.1578 20.9904 34.4783 23.4003 36.0796 26.2161C37.82 29.275 34.7527 31.9829 31.3959 32.6129C28.204 33.2118 25.8229 32.3674 23.2884 31.748C20.1162 30.9706 19.9673 27.9853 20.6574 24.7934Z" fill="#925E56"/>
<path d="M19.5305 17.3365C19.1786 16.3584 18.4293 14.9859 17.2346 16.2216C15.4973 18.019 17.1738 22.7849 19.7341 22.3122C21.6356 21.9641 19.7151 17.851 19.5305 17.3365Z" fill="#FFBBB5"/>
<path d="M29.8724 18.4233C30.4794 18.2477 31.034 17.9257 31.4874 17.4854C31.84 17.1457 32.2983 17.7537 31.9494 18.0934C31.4464 18.5775 30.834 18.9331 30.1642 19.13C29.6984 19.2638 29.4035 18.5623 29.8724 18.4233Z" fill="#C66C67"/>
<path d="M36.581 27.8774C35.0952 28.9901 32.4946 30.6962 30.2306 30.9486C26.8312 31.3286 26.8624 31.1697 23.4516 30.5777C21.8777 30.3049 20.9961 29.6657 20.4976 29.0524C20.8251 30.3535 21.652 31.3445 23.289 31.7443C25.8235 32.3637 28.206 33.208 31.3964 32.6091C34.1232 32.0969 36.6646 30.2099 36.581 27.8774Z" fill="#874138"/>
<path d="M26.488 15.2755C26.5739 15.2558 26.8353 15.1752 27.0124 15.4777C27.1556 15.7179 27.2298 15.993 27.2267 16.2726C27.2237 16.3447 27.2039 16.415 27.1687 16.4779C27.1336 16.5409 27.0842 16.5947 27.0244 16.6351C26.9647 16.6755 26.8963 16.7012 26.8248 16.7104C26.7533 16.7195 26.6806 16.7117 26.6127 16.6876C26.2038 16.5546 25.9165 15.4146 26.488 15.2755Z" fill="#434A59"/>
<path d="M31.7423 15.1036C31.8282 15.0839 32.0897 15.0026 32.2667 15.305C32.4097 15.5456 32.4839 15.8209 32.481 16.1008C32.4779 16.1727 32.458 16.243 32.4228 16.3058C32.3876 16.3687 32.3382 16.4224 32.2785 16.4627C32.2187 16.503 32.1504 16.5287 32.0789 16.5378C32.0075 16.5468 31.9349 16.539 31.867 16.515C31.4581 16.3797 31.167 15.2397 31.7423 15.1036Z" fill="#434A59"/>
<path d="M27.0853 13.1854C26.7144 12.997 26.0859 13.0547 25.728 13.2371C25.3571 13.4263 24.9346 13.7691 24.7681 14.1742C24.7394 14.2132 24.7235 14.2602 24.7225 14.3087C24.7115 14.3455 24.7136 14.385 24.7286 14.4204C24.7436 14.4558 24.7705 14.4848 24.8046 14.5025C24.8493 14.5502 24.9102 14.5795 24.9754 14.5848C25.0405 14.5902 25.1053 14.5711 25.1572 14.5314C25.7268 14.1548 26.3588 13.8825 27.0237 13.7273C27.3262 13.6574 27.327 13.231 27.0853 13.1854Z" fill="#434A59"/>
<path d="M32.2384 13.0157C32.2191 13.0004 32.1973 12.9888 32.1738 12.9815C31.9952 12.9245 31.7771 12.815 31.5544 12.7337C31.5398 12.7261 31.5245 12.7198 31.5088 12.7147L31.4906 12.7109C31.1638 12.6007 30.8347 12.568 30.6197 12.8743C30.5947 12.9097 30.5826 12.9527 30.5855 12.9959C30.5384 13.1479 30.6052 13.3493 30.8074 13.3706C31.2587 13.4106 31.7076 13.4735 32.1525 13.5591C32.4778 13.6267 32.528 13.1213 32.2384 13.0157Z" fill="#434A59"/>
<path d="M27.5781 20.6705L33.1313 20.3605C33.1313 20.3605 33.4748 21.3006 32.0901 22.0773C30.7054 22.854 27.8403 21.9625 27.5781 20.6705Z" fill="white"/>
</svg>
